{
    "asset" : {
        "generator" : "Khronos glTF Blender I/O v1.0.5",
        "version" : "2.0"
    },
    "scene" : 0,
    "scenes" : [
        {
            "name" : "Scene",
            "nodes" : [
                0,
                1,
                3,
                4
            ]
        }
    ],
    "nodes" : [
        {
            "name" : "Light",
            "rotation" : [
                0.16907575726509094,
                0.7558803558349609,
                -0.27217137813568115,
                0.570947527885437
            ],
            "translation" : [
                4.076245307922363,
                5.903861999511719,
                -1.0054539442062378
            ]
        },
        {
            "name" : "\u30c7\u30d5\u30a9\u30eb\u30c8",
            "scale" : [
                0.009999999776482582,
                0.009999999776482582,
                0.009999999776482582
            ],
            "translation" : [
                -5.412728786468506,
                0,
                0
            ]
        },
        {
            "mesh" : 0,
            "name" : "\u30aa\u30d6\u30b8\u30a7\u30af\u30c8_1.001"
        },
        {
            "children" : [
                2
            ],
            "name" : "\u30c7\u30d5\u30a9\u30eb\u30c8.001",
            "scale" : [
                0.009999999776482582,
                0.009999999776482582,
                0.009999999776482582
            ]
        },
        {
            "name" : "Front",
            "rotation" : [
                0.5000000596046448,
                0.5,
                0.4999999403953552,
                0.4999999701976776
            ],
            "scale" : [
                0.009999999776482582,
                0.009999999776482582,
                0.009999999776482582
            ],
            "translation" : [
                -1.6743520498275757,
                -1.3099822998046875,
                3.1494140625
            ]
        }
    ],
    "materials" : [
        {
            "doubleSided" : true,
            "name" : "white",
            "pbrMetallicRoughness" : {
                "baseColorFactor" : [
                    0.9803921580314636,
                    0.9803921580314636,
                    0.9803921580314636,
                    1
                ],
                "metallicFactor" : 0,
                "roughnessFactor" : 0.5527864098548889
            }
        },
        {
            "doubleSided" : true,
            "name" : "red.001",
            "pbrMetallicRoughness" : {
                "baseColorFactor" : [
                    0.799103319644928,
                    0.01680721342563629,
                    0.07421361654996872,
                    1
                ],
                "metallicFactor" : 0,
                "roughnessFactor" : 0.5
            }
        },
        {
            "doubleSided" : true,
            "name" : "black",
            "pbrMetallicRoughness" : {
                "baseColorFactor" : [
                    0,
                    0,
                    0,
                    1
                ],
                "metallicFactor" : 0,
                "roughnessFactor" : 0.5
            }
        }
    ],
    "meshes" : [
        {
            "name" : "\u30aa\u30d6\u30b8\u30a7\u30af\u30c8_1.001",
            "primitives" : [
                {
                    "attributes" : {
                        "POSITION" : 0,
                        "NORMAL" : 1,
                        "TEXCOORD_0" : 2
                    },
                    "indices" : 3,
                    "material" : 0
                },
                {
                    "attributes" : {
                        "POSITION" : 4,
                        "NORMAL" : 5,
                        "TEXCOORD_0" : 6
                    },
                    "indices" : 7,
                    "material" : 1
                },
                {
                    "attributes" : {
                        "POSITION" : 8,
                        "NORMAL" : 9,
                        "TEXCOORD_0" : 10
                    },
                    "indices" : 11,
                    "material" : 2
                }
            ]
        }
    ],
    "accessors" : [
        {
            "bufferView" : 0,
            "componentType" : 5126,
            "count" : 4990,
            "max" : [
                200,
                200,
                200
            ],
            "min" : [
                -200,
                -200,
                -200
            ],
            "type" : "VEC3"
        },
        {
            "bufferView" : 1,
            "componentType" : 5126,
            "count" : 4990,
            "type" : "VEC3"
        },
        {
            "bufferView" : 2,
            "componentType" : 5126,
            "count" : 4990,
            "type" : "VEC2"
        },
        {
            "bufferView" : 3,
            "componentType" : 5123,
            "count" : 23295,
            "type" : "SCALAR"
        },
        {
            "bufferView" : 4,
            "componentType" : 5126,
            "count" : 307,
            "max" : [
                80,
                79.94662475585938,
                200
            ],
            "min" : [
                -79.78658294677734,
                -79.94662475585938,
                120
            ],
            "type" : "VEC3"
        },
        {
            "bufferView" : 5,
            "componentType" : 5126,
            "count" : 307,
            "type" : "VEC3"
        },
        {
            "bufferView" : 6,
            "componentType" : 5126,
            "count" : 307,
            "type" : "VEC2"
        },
        {
            "bufferView" : 7,
            "componentType" : 5123,
            "count" : 1473,
            "type" : "SCALAR"
        },
        {
            "bufferView" : 8,
            "componentType" : 5126,
            "count" : 5954,
            "max" : [
                200,
                200,
                160
            ],
            "min" : [
                -200,
                -200,
                -200
            ],
            "type" : "VEC3"
        },
        {
            "bufferView" : 9,
            "componentType" : 5126,
            "count" : 5954,
            "type" : "VEC3"
        },
        {
            "bufferView" : 10,
            "componentType" : 5126,
            "count" : 5954,
            "type" : "VEC2"
        },
        {
            "bufferView" : 11,
            "componentType" : 5123,
            "count" : 29298,
            "type" : "SCALAR"
        }
    ],
    "bufferViews" : [
        {
            "buffer" : 0,
            "byteLength" : 59880,
            "byteOffset" : 0
        },
        {
            "buffer" : 0,
            "byteLength" : 59880,
            "byteOffset" : 59880
        },
        {
            "buffer" : 0,
            "byteLength" : 39920,
            "byteOffset" : 119760
        },
        {
            "buffer" : 0,
            "byteLength" : 46590,
            "byteOffset" : 159680
        },
        {
            "buffer" : 0,
            "byteLength" : 3684,
            "byteOffset" : 206272
        },
        {
            "buffer" : 0,
            "byteLength" : 3684,
            "byteOffset" : 209956
        },
        {
            "buffer" : 0,
            "byteLength" : 2456,
            "byteOffset" : 213640
        },
        {
            "buffer" : 0,
            "byteLength" : 2946,
            "byteOffset" : 216096
        },
        {
            "buffer" : 0,
            "byteLength" : 71448,
            "byteOffset" : 219044
        },
        {
            "buffer" : 0,
            "byteLength" : 71448,
            "byteOffset" : 290492
        },
        {
            "buffer" : 0,
            "byteLength" : 47632,
            "byteOffset" : 361940
        },
        {
            "buffer" : 0,
            "byteLength" : 58596,
            "byteOffset" : 409572
        }
    ],
    "buffers" : [
        {
            "byteLength" : 468168,
            "uri" : "data:application/octet-stream;base64,"
        }
    ]
}
